<?xml version="1.0" standalone="no"?>
<!DOCTYPE svg PUBLIC "-//W3C//DTD SVG 20010904//EN"
 "http://www.w3.org/TR/2001/REC-SVG-20010904/DTD/svg10.dtd">
<svg version="1.0" xmlns="http://www.w3.org/2000/svg"
 width="1024.000000pt" height="1024.000000pt" viewBox="0 0 1024.000000 1024.000000"
 preserveAspectRatio="xMidYMid meet">

<g transform="translate(0.000000,1024.000000) scale(0.100000,-0.100000)"
fill="#000000" stroke="none">
<path d="M3550 6848 c-113 -313 -738 -2027 -862 -2363 -127 -344 -382 -1032
-403 -1088 -8 -20 -15 -40 -15 -42 0 -3 125 -5 278 -5 l277 0 84 238 c46 130
119 339 163 465 l81 227 742 0 742 0 159 -465 159 -465 907 0 c1000 0 1041 2
1239 61 315 93 562 290 680 543 46 98 79 245 86 382 17 333 -75 580 -290 781
-79 73 -206 154 -293 185 -35 13 -64 25 -64 28 0 3 24 17 53 32 120 59 245
176 317 298 156 262 142 679 -32 947 -131 201 -324 333 -595 406 l-118 32
-702 3 -703 3 0 -1728 -1 -1728 -20 50 c-26 66 -259 705 -504 1385 -267 740
-308 854 -526 1468 -103 293 -191 537 -194 542 -4 6 -119 10 -289 10 l-283 0
-73 -202z m3225 -292 c265 -74 395 -261 383 -545 -4 -84 -10 -119 -31 -169
-69 -166 -191 -259 -395 -298 -55 -10 -164 -14 -423 -14 l-349 0 0 528 0 527
377 -6 c312 -5 388 -9 438 -23z m-2700 -641 c92 -275 216 -644 276 -819 60
-176 109 -323 109 -328 0 -4 -259 -8 -575 -8 l-574 0 30 83 c17 45 44 118 59
162 15 44 89 251 165 460 75 209 182 509 238 667 55 158 102 286 103 285 1 -1
77 -227 169 -502z m2804 -894 c288 -74 451 -288 451 -590 -1 -244 -106 -427
-300 -523 -140 -69 -155 -71 -637 -75 l-433 -4 0 611 0 612 418 -5 c385 -4
423 -6 501 -26z"/>
</g>
</svg>
